/* XPM */
static char * borex_xpm[] = {
"70 70 136 2",
"  	c None",
". 	c #99C1E9",
"+ 	c #6FA8E1",
"@ 	c #629ED9",
"# 	c #5296DA",
"$ 	c #438ED8",
"% 	c #3987D4",
"& 	c #4C92D9",
"* 	c #66A2DE",
"= 	c #79AEE2",
"- 	c #97BFE8",
"; 	c #C3DAF1",
"> 	c #74A8DC",
", 	c #4690D9",
"' 	c #1B75CE",
") 	c #0B6CCD",
"! 	c #3283D3",
"~ 	c #5A9AD9",
"{ 	c #1B75D0",
"] 	c #3E8AD5",
"^ 	c #D6E2EE",
"/ 	c #80B0E1",
"( 	c #2E81D5",
"_ 	c #297ED2",
": 	c #E0ECF8",
"< 	c #F6F9FC",
"[ 	c #FEFEFE",
"} 	c #E5ECF4",
"| 	c #D3E2F1",
"1 	c #AFCBE7",
"2 	c #0468CC",
"3 	c #74ABE2",
"4 	c #C8DEF3",
"5 	c #6CA5DD",
"6 	c #C2D8EF",
"7 	c #F3F6FA",
"8 	c #F2F2F2",
"9 	c #CBCBCB",
"0 	c #BFC0C0",
"a 	c #ABACAC",
"b 	c #A3A3A3",
"c 	c #B3B3B3",
"d 	c #A7A8A8",
"e 	c #BBBBBB",
"f 	c #E5E9EC",
"g 	c #EDF2F8",
"h 	c #116FCD",
"i 	c #2E7DCB",
"j 	c #9BC0E6",
"k 	c #E3E3E3",
"l 	c #EBEBEB",
"m 	c #D3D3D3",
"n 	c #DBDBDB",
"o 	c #5498DA",
"p 	c #1370CE",
"q 	c #C3C3C3",
"r 	c #9B9B9B",
"s 	c #7C7C7C",
"t 	c #737373",
"u 	c #B7B8B8",
"v 	c #98BDE2",
"w 	c #BFD7F0",
"x 	c #E4E6E8",
"y 	c #535353",
"z 	c #979898",
"A 	c #3F4040",
"B 	c #CED0D1",
"C 	c #5F6060",
"D 	c #373838",
"E 	c #838383",
"F 	c #92BCE4",
"G 	c #CADCEE",
"H 	c #8B8B8B",
"I 	c #939393",
"J 	c #5C5C5C",
"K 	c #4F5050",
"L 	c #636363",
"M 	c #434343",
"N 	c #AFB0B0",
"O 	c #3C3C3C",
"P 	c #333434",
"Q 	c #6B6B6B",
"R 	c #777878",
"S 	c #7EADDB",
"T 	c #4B4B4B",
"U 	c #2B2B2B",
"V 	c #4F91D4",
"W 	c #B5D1EE",
"X 	c #BAD0E7",
"Y 	c #5293D5",
"Z 	c #B8CEE4",
"` 	c #0B0B0B",
" .	c #242424",
"..	c #E9EFF4",
"+.	c #131313",
"@.	c #D2DDE9",
"#.	c #1B1B1B",
"$.	c #A7BDD2",
"%.	c #6F7070",
"&.	c #1F2020",
"*.	c #72A3D4",
"=.	c #BBD2E9",
"-.	c #2279D1",
";.	c #438CD6",
">.	c #5B91C7",
",.	c #5897D5",
"'.	c #307FCD",
").	c #D9DFE4",
"!.	c #C3D5E9",
"~.	c #0267CB",
"{.	c #B0C6DD",
"].	c #95B8DB",
"^.	c #DBE1E8",
"/.	c #8CB5DD",
"(.	c #D4DCE3",
"_.	c #85ADD4",
":.	c #B3C9DE",
"<.	c #DEE1E4",
"[.	c #93B6D9",
"}.	c #93B3D3",
"|.	c #99B5D1",
"1.	c #196DC1",
"2.	c #6B98C6",
"3.	c #CCD5E0",
"4.	c #CAD2DB",
"5.	c #4983BD",
"6.	c #97B3CE",
"7.	c #77A3CF",
"8.	c #C4C8CB",
"9.	c #749CC3",
"0.	c #AAC2DA",
"a.	c #D0D7DE",
"b.	c #508DCA",
"c.	c #C2D0DE",
"d.	c #C1CEDB",
"e.	c #4688CA",
"                                                          . + @ # $ % % $ & * = -                                                           ",
"                                                ; > , ' ) ' ! , ~ * > > * ~ , % { ) ' ] > ;                                                 ",
"                                          ^ / ( ) _ ~ . ^ : < [ [ [ < < < [ [ < } | 1 @ _ 2 ( 3 |                                           ",
"                                      4 & ) { 5 6 7 [ [ 8 8 9 0 a b c d b e 9 f < 8 8 8 g ; > h ) & 4                                       ",
"                                  4 & ) i j 8 [ 8 k e d d d 9 k k k l k k l m c a a a n l < < < . ( ) o 4                                   ",
"                                / p ! . 7 [ k 0 d 0 m m 9 q 8 r s b 9 r t u q n d l k q c a m 8 < 7 v ! p =                                 ",
"                            w ] h = g < n a e m 9 m x y z A B r C a x n D b 8 q A n b E l n 9 d 0 8 < 7 / h ] w                             ",
"                          F p ] G < x a 0 x 8 H B C I s J K k r K b k l y E l d L l d M m r l l m d q < [ 6 ] p F                           ",
"                        * h 5 7 8 e N n c r 9 y k q O r M O r b K c I r 0 P m t H n c Q E a z R a k 9 b x l g S ) 5                         ",
"                      ~ p v < k b n k L I T c O 9 n J c J e a m q q n m n q m z e a q e U e D m 9 R 8 l d 0 8 < F p ~                       ",
"                    V p W < B a 8 8 8 a M Q T H t a q k 9 q c a z H I a e d b e 9 m k l I b s l I C 8 8 8 q a 8 [ X p Y                     ",
"                  ~ p W < e q 8 8 8 8 8 y b L n l 9 a E e n l l l k n 9 c k 0 0 m e I 0 l n H c P u 8 8 8 8 m r x < W p ~                   ",
"                * h Z 8 c 9 < 8 8 8 8 8 c R n q a r 9 n 9 e 0 q 0 q k 8 l e n q m 8 0 9 E c n e B l 8 8 8 8 8 m I l 8 W p *                 ",
"              F h v 8 u r s L H n 8 8 8 l 9 z 0 l 8 n q 9 q e e 9 k q q l l 0 n c l k q e n H e k 8 8 l l l 8 b r r l < F ) F               ",
"              p + 7 0 9 k N M ` T k 8 k c b n 9 e 9 m m m l l l n e q n u l l c n c l c c l c c b m 8 k l 8 m A z k r l 8 5 p w             ",
"            ] ] g 9 e 8 8 8 m  .` T z a k n q 0 q e 9 n n q 0 q 8 8 m q k e l n q c 8 0 a l 9 9 e 0 q k 0 r A ` b 8 m b ..g ] ]             ",
"          = p 4 k d 8 8 8 8 8 y ` +.I 0 e l 8 l l k n q 0 0 m k u k l m q m 9 l c q m q u n m q c l 9 K +.` ` P m 8 8 0 e 8 @.p /           ",
"        4 h = 8 b k 8 8 8 8 8 R #.r e 9 n q q 0 q 9 n k l l m e k e m l e m u l u m 9 e m u l e m e l 9 A ` O m l 8 8 l b n 8 / p 4         ",
"        # ! ..e 9 8 8 l 8 8 8 a E l l m 0 e 9 9 9 q 9 9 e m l l a n e n l c 9 m e n q m q c l 9 9 q B l m P e l 8 8 8 8 n I 8 g ! ,         ",
"      4 ) . l I r y P Q k 8 n d n e 9 8 8 8 k n n n q e n 9 q l l c k e l e 9 9 9 e e l c q m l c e M u l 9 c 8 l 8 8 l z z e 8 - ) 4       ",
"      & _ g c $.d %.&.` U t z 9 u n n e q m 9 s m E a k u m m 0 l n q q k n c e l N c l e k c k l E +.+.t B c 9 k k k z U n r 8 .._ ,       ",
"    | ) . k d 8 8 8 e #.`  .0 8 l q q q m l k P b b H l l 9 9 m q l 0 m e n u u l N e n k N n N k l a D +.+.M U ` U P ` T l q e 8 . p |     ",
"    > p 8 0 m 8 8 < l y +.I q q n k l l 8 l l K H H q a n l q m c l m 9 c k e c l N k e l m d O R n l n r L M  .` ` ` P e 8 f b 8 l p 3     ",
"    ! *.l c 8 8 8 8 8 e T c q n n q 0 q e q m L y E c n b k l e n 0 k c c l u e k n q q m l e P +.O r n l k k m s ` I n l 8 l c m 8 5 (     ",
"  4 ) =.m e 8 8 8 8 8 m e 8 l q q e q 0 0 n n s O z t r k r l 9 m c l c c l c 9 m l u n d m l m Q +.` &.M L E r b %.l 8 l 8 8 n d l Z )     ",
"  > -.} b x l m n 8 8 c c q k k k l 8 l l q e c q y c m c q 9 l e c l a u l 9 m c k k a D P e k l n r Q T U  .#.` M k l 8 8 l 8 b l f ( >   ",
"  , ~ 8 b u T +. .L L s 9 B q 9 9 9 q q n l l e m H q l c m N 8 c a l c q m k e n e l n Q +.#.J a m k k k l n e E O u k l 8 8 e E m l ~ &   ",
"  ' v x E s E y ` ` +.9 m m 9 e q e q n 9 e l l q n q k l b a k c e l e k c 8 9 9 u b l k N A ` `  .P y L H c k k m M P R b t O e c l v '   ",
"  ) 6 e m l 8 l s ` P a 0 n l 8 8 l k e 9 k c k l c n e l a 0 m e m q k q q m l q O +.t n k k 9 b s L T U ` +.O a k t ` ` ` ` H l r l G )   ",
". ' ^ b 8 8 8 8 l L L k n 9 0 0 e 9 l l m q k e l k 0 u k a 9 m q m q l u k e k k c U `  .R c 9 n n l k k q L +.` s b ` &.M I k l z l @.{ . ",
"+ ! l b l 8 8 8 8 m a B 9 9 q 0 m k e n 8 m q m m 8 0 0 k c c 9 k e e l l c q Q n l m s D #.` +.U M y E 0 k k a  .` L C m l l 8 l I l l ! + ",
"@ $ 8 a 8 8 8 8 l m d q 9 l 8 l m 0 k q n l 9 m c l m c n m u c l c m u l m C ` O c k l n 0 a H s y U ` #.L n k u  .` b l l l l ..c n l ;.@ ",
"# >.l b 8 l l l l z b n n e u n l k c k e k l u 9 n 9 9 q n e b l 9 q q 9 l n L ` +.M s a q k k k k n b P ` O m k r ` R l l l l l e q 8 ~ o ",
";.@ l b k s #.#.&. .q q e q n 9 q l l a k u l q n e m m c k a e 9 l e u M c k l e Q P #.+.` `  .y H m k n J ` O m k T P I k l l l e e l @ $ ",
"% + l a Q  .U #.`  .q n l l e 9 n e l k 0 9 m m q e n e a l c m b k k H +.+.Q q k k k m e d H J  .` U d k k J ` R k r ` ` J q q H E e 8 5 % ",
"% @ l s b m n a  . .e 0 e k 8 q q m 9 l e n q l e e l e e n k a m r k k a D ` #.M t I b e n k l m t +.#.I k 9 U &.m 9 #.` ` +.#.J u u l @ ] ",
";.,.l r l l l l m s b q n e k l 9 m e k k q e l c c l e k c l m r U L m l n a Q O  .` ` +.&.T d k k b #.+.c k H ` r n U  .O O Q n e e 8 o $ ",
"# # l z l l 8 l l m 9 m a k e n l c n q l 0 e l e e l m q q 9 l q P `  .s 9 n k k k k e r y +.` J m k b +.P n 9 #.t k I k l l l l c q l & # ",
"* '.l d l l l l l m c l k e n e l n q c l 0 e l c n q l e n b q l m t  .+.` D y %.E d 9 l k c M ` T m k Q ` r l D T m e l l l l l b x l % @ ",
"/ '.f r l l l l q L R e l k u m 9 l c c k e q n m 9 c k k b O U b l k 9 r L K M U +.`  .y q k m y ` L k 9 ` L k J M 9 b k l l l l I l x ! / ",
". -.@.z k l I U #.` L 9 e l q m c l u e k c 9 9 l c k c l n E +.+.T r m k k k n m q H P ` M k l m P +.c k O P k L U b #.c l l l k z l ).' . ",
"| ) !.0 q N +.#.+.`  .9 0 m l c c l e e k m m c l m e c r k k c y #.+.+.U T L s c n k n E q k m k a +.J k t  .n H ` M ` U q k k k H l Z ~.  ",
"  { F k I J s q c Q O H n c l c c k q e 9 n c 9 9 l q T +.t 9 l k 9 r H Q y P +.` P r k I U 9 M a n M P m I #.9 b ` ` ` ` #.y L s N l F '   ",
"  ;.# k I c l l k l k b e q k e 9 9 9 m c l u n c n l c D `  .%.a q n k k k k e %.#.P k n #.e t q l s #.q d +.e n  .Q R M  .T a b B l ,.]   ",
"  3 -.^ b n l l l l l a a m 9 e n e n q u k k N m L n k m H O +.` #. .P y E e k k c J k k U r s k k a ` q c ` I k I k l k m k l I k ).-.3   ",
"    ) 1 m a l l 8 l l r t e q 9 q c l c k a l n L ` U b n k n m a r s J U ` +.J m k k k k M O b Q r q ` a n #.O q c k k l k k m c l {.2 ;   ",
"    _ @ k r l l l n r  .U a c l c c k m q 9 9 k n Q #.` O t b 0 9 m k k k a O ` U q l l k L I 9 M m 9  .E k J ` P L k l l k l a B f @ !     ",
"    / ) k 0 q l m M ` ` ` E c l a 9 9 l e e y b l k e Q O &.` +.#.U T E m k n L ` P m k k m k b H e m  .y k e #.` +.9 k l l k r f ).) =     ",
"    | ) F k r f I ` P M D M I x 9 m u n k r #.+.L 9 k k n 9 0 b I J  .` U b k n L ` Q k k r a k Q H k T +.q n O ` ` J k l l c q f ].h |     ",
"      & _ x c 9 C s k k k k H 9 k c n c k l c P +.+.M t r N 9 n n k m s +.+.H k n U #.q k #.Q k U J k r ` y r s J ` ` P t b I k ^._ &       ",
"      4 ) /.f r s x l l l l k r k m a T L m l n d Q O  .&.+.` #.T a n k b #.+.b k I ` H k O J k y #.m n M #.q l k a y Q r r 0 l F 2 4       ",
"        o _ (.0 c l l l l l n P H k q M ` P I 9 k k k m q c I J +.+.L 9 k b #.U m m  .y k T T k E ` H k I y k k k k k k n z k n _ o         ",
"        4 h > l r m l l l n L +.+.H k m R &.+.&.M Q H H c n k n c O ` M m k t ` I n y M n Q U m 9 #.U I U #.k k k k x k I n k _.p 4         ",
"          = ) Z n r k k k J ` ` +.U r k k m r t T P #.+.+.#.%.m k 9 T ` L k q  .y n L P m E ` b k E ` ` ` +.9 k k l x a e k :.h =           ",
"            ] ! x 9 b k n #.P r 0 k m b N m n k k k n 0 H P +. .a n m D ` a k K U n H  .9 q ` T m b b t +.` s k l k 9 b k (.-.;.            ",
"            w p ,.x e a n U e k l l l k I O O y Q H c m n m s +.#.a k c +.y n E ` n I ` u n y #.I m k k H +.+.t q 9 b n ).Y h               ",
"              F ) /.x c d s x x l k l l k q L  .U ` +.P I k n I +. .9 n T #.m r ` m u ` t 9 z b q k k l k d s E H I <.n *.2 -               ",
"                * ) [.).c d l k l k k N J H q q r I Q #.` L n n t +.Q n H #.e c +.N m D T c n I z A c k k k k 9 I n k }.) *                 ",
"                  ~ ) 1 k e a k l k B P c n R r c 9 a s U +.J n n U U 9 c +.I c U Q N 0 q r N C n z M x k k 9 r n n |.) ,.                  ",
"                    V ) ].k 0 r m k q L 9 r 9 T H Q k m 9 c r d a s M z a Q b e 9 0 c a t c a A N m y k n N d n n _.1.V                     ",
"                      ~ h _.x n r 0 n I t J c D t C n C 9 c H n e m n a c m e 9 n Q 0 a J O M s J r N B z e k m 2.~.~                       ",
"                        * 2 ,.3.n u r B e 9 J y T m a O c e U r r n r I b e s Q n A U J a 9 r r m m a z m k 4.5.~.*                         ",
"                          F p i :.k n r b m N r y q s T z a r O z k c P L 9 H O c 0 9 Q b %.b m e z q k n 6.1.p -                           ",
"                              ] p 7.m k 9 b b e 9 a q t s I n Q s n 9 u t s s E M r E r m 9 a r e n k 8.>.~.] =.                            ",
"                                = ) -./.(.k m c b b e 9 8.d m 9 c n u E E d z 9 N m 9 a r r q n k B 9.1.) =                                 ",
"                                  | & ) _ S 4.n n 9 c I I r d e n n n m m 9 N b z z a 9 n k k m 9.h 2 o |                                   ",
"                                      4 & p 2 ,.0.a.k k n k m u a b r b d c 0 n n k k n a.|.b.) h & 4                                       ",
"                                          ^ / ( ) p V _.{.c.n n k n n n n n n m d.$.7.e.h ) _ 3 |                                           ",
"                                                ; 3 & ' 2 p ! '.V V V V V e.'.i p 2 { ] 3 ;                                                 ",
"                                                          . + @ # $ % % $ & @ = - |                                                         "};
